<?xml version="1.0" encoding="UTF-8" standalone="no"?>
<!-- Created with Inkscape (http://www.inkscape.org/) -->

<svg
   xmlns:dc="http://purl.org/dc/elements/1.1/"
   xmlns:cc="http://creativecommons.org/ns#"
   xmlns:rdf="http://www.w3.org/1999/02/22-rdf-syntax-ns#"
   xmlns:svg="http://www.w3.org/2000/svg"
   xmlns="http://www.w3.org/2000/svg"
   xmlns:sodipodi="http://sodipodi.sourceforge.net/DTD/sodipodi-0.dtd"
   xmlns:inkscape="http://www.inkscape.org/namespaces/inkscape"
   width="48"
   height="48"
   id="svg2951"
   version="1.1"
   inkscape:version="0.48.2 r9819"
   sodipodi:docname="fedora.svg">
  <defs
     id="defs2953" />
  <sodipodi:namedview
     id="base"
     pagecolor="#ffffff"
     bordercolor="#666666"
     borderopacity="1.0"
     inkscape:pageopacity="0.0"
     inkscape:pageshadow="2"
     inkscape:zoom="2.8"
     inkscape:cx="25.309727"
     inkscape:cy="-10.388365"
     inkscape:document-units="px"
     inkscape:current-layer="layer1"
     showgrid="false"
     inkscape:window-width="1280"
     inkscape:window-height="768"
     inkscape:window-x="0"
     inkscape:window-y="250"
     inkscape:window-maximized="1"
     fit-margin-top="0"
     fit-margin-left="0"
     fit-margin-right="0"
     fit-margin-bottom="0" />
  <metadata
     id="metadata2956">
    <rdf:RDF>
      <cc:Work
         rdf:about="">
        <dc:format>image/svg+xml</dc:format>
        <dc:type
           rdf:resource="http://purl.org/dc/dcmitype/StillImage" />
        <dc:title></dc:title>
      </cc:Work>
    </rdf:RDF>
  </metadata>
  <g
     inkscape:label="Layer 1"
     inkscape:groupmode="layer"
     id="layer1"
     transform="translate(-499.43198,-510.64617)">
    <g
       style="display:inline;enable-background:new"
       transform="matrix(0.10549169,0,0,0.10549169,479.90321,510.64617)"
       id="g2929">
      <path
         d="M 640.13353,227.50939 C 640.13353,101.86144 538.27524,0 412.62729,0 287.03598,0 185.21754,101.77649 185.12839,227.34892 l -0.007,-0.006 0,176.05584 0.007,0.007 c 0.0671,28.51235 23.19185,51.59407 51.72203,51.59407 0.0818,0 0.16047,-0.007 0.24542,-0.007 l 0.0136,0.007 175.60906,0 0,0 c 125.606,-0.0503 227.415,-101.87507 227.415,-227.4905 z"
         id="path2438-2"
         style="fill:#294172;fill-opacity:1"
         inkscape:connector-curvature="0" />
      <path
         style="fill:#3c6eb4;fill-opacity:1"
         id="path2442-3"
         d="m 479.42355,53.928679 c -58.97125,0 -106.77606,47.804801 -106.77606,106.777111 0,0.021 0,0.0461 0,0.0745 l 0,56.51604 -56.33879,0 c -0.0105,0 -0.0105,0 -0.0178,0 -58.97545,0 -106.77606,47.56988 -106.77606,106.53798 0,58.9723 47.80061,106.7813 106.77606,106.7813 58.9681,0 106.77606,-47.81005 106.77606,-106.7813 0,-0.0189 0,-0.0462 0,-0.0671 l 0,-56.75831 56.33564,0 c 0.0105,0 0.0178,0 0.021,0 58.96915,0 106.7771,-47.33075 106.7771,-106.30201 0,-58.97335 -47.80795,-106.778151 -106.7771,-106.778151 z M 372.64854,323.92971 c -0.0503,31.08188 -25.2674,56.26957 -56.35557,56.26957 -31.12489,0 -56.59156,-25.23488 -56.59156,-56.35872 0,-31.12907 25.46667,-56.83277 56.59156,-56.83277 0.0283,0 0.0535,0.007 0.0745,0.007 l 48.2883,0 c 0.0147,0 0.0241,-0.007 0.0356,-0.007 4.39443,0 7.96135,3.55539 7.96135,7.95086 0,0.003 -0.004,0.0105 -0.004,0.0178 l 0,48.95323 z M 479.4204,217.29629 c -0.0178,0 -0.0357,0 -0.0535,0 l -48.31976,0 c -0.007,0 -0.022,0 -0.022,0 -4.40176,0 -7.9582,-3.56169 -7.9582,-7.95716 l 0,-0.007 0,-48.71935 c 0.0545,-31.09237 25.26425,-56.27062 56.35242,-56.27062 31.12908,0 56.5989,25.23174 56.5989,56.36397 10e-4,31.12383 -25.46877,56.5905 -56.59785,56.5905 z"
         inkscape:connector-curvature="0" />
      <path
         d="m 372.64854,217.29629 0,-56.51709 c 0,-0.0283 0,-0.0535 0,-0.0745 0,-58.9723 47.80481,-106.77711 106.77606,-106.77711 8.95035,0 15.30706,1.00369 23.59143,3.174681 12.0747,3.164194 21.93541,13.057411 21.94275,24.577298 0.004,13.921612 -10.10298,24.039271 -25.20238,24.039271 -7.19573,0 -9.79778,-1.37706 -20.33495,-1.37706 -31.08922,0 -56.29894,25.17825 -56.35243,56.27062 l 0,48.71935 0,0.007 c 0,4.39443 3.55644,7.95716 7.95821,7.95716 0,0 0.0147,0 0.022,0 l 37.00649,0 c 13.79365,0 24.92549,11.03535 24.93598,24.86152 0,13.83561 -11.14652,24.84998 -24.93598,24.84998 l -44.98672,0 0,56.75831 c 0,0.022 0,0.0493 0,0.0745 0,58.96496 -47.80795,106.77501 -106.77605,106.77501 -8.94617,0 -15.30602,-1.01103 -23.58725,-3.17468 -12.07469,-3.16 -21.94274,-13.06056 -21.94693,-24.5773 0,-13.91846 10.10402,-24.04451 25.20657,-24.04451 7.18839,0 9.79672,1.3802 20.32761,1.3802 31.08922,0 56.30628,-25.1814 56.35976,-56.26957 0,0 0,-48.96791 0,-48.97106 0,-4.38918 -3.56587,-7.94352 -7.96135,-7.94352 -0.007,0 -0.0115,0 -0.022,0 l -37.00334,-0.007 c -13.79366,0 -24.93913,-11.00283 -24.93913,-24.83635 -0.007,-13.91846 11.25874,-24.8762 25.20238,-24.8762 l 44.71927,0 0,0.001 z"
         id="path2444-10"
         style="fill:#ffffff"
         inkscape:connector-curvature="0" />
    </g>
  </g>
</svg>
